<svg width="1379" height="410" viewBox="0 0 1379 410" fill="none" xmlns="http://www.w3.org/2000/svg">
<path d="M47.8184 98.1055L49.2539 121.279C64.8398 103.096 86.168 94.0039 113.238 94.0039C142.906 94.0039 163.209 105.352 174.146 128.047C190.279 105.352 212.975 94.0039 242.232 94.0039C266.705 94.0039 284.889 100.771 296.783 114.307C308.814 127.842 314.967 147.803 315.24 174.189V320H265.406V175.625C265.406 161.543 262.33 151.221 256.178 144.658C250.025 138.096 239.84 134.814 225.621 134.814C214.273 134.814 204.977 137.891 197.73 144.043C190.621 150.059 185.631 157.988 182.76 167.832L182.965 320H133.131V173.984C132.447 147.871 119.117 134.814 93.1406 134.814C73.1797 134.814 59.0293 142.949 50.6895 159.219V320H0.855469V98.1055H47.8184ZM506.578 320C504.391 315.625 502.613 307.832 501.246 296.621C483.609 314.941 462.555 324.102 438.082 324.102C416.207 324.102 398.229 317.949 384.146 305.645C370.201 293.203 363.229 277.48 363.229 258.477C363.229 235.371 371.979 217.461 389.479 204.746C407.115 191.895 431.861 185.469 463.717 185.469H500.631V168.037C500.631 154.775 496.666 144.248 488.736 136.455C480.807 128.525 469.117 124.561 453.668 124.561C440.133 124.561 428.785 127.979 419.625 134.814C410.465 141.65 405.885 149.922 405.885 159.629H367.74C367.74 148.555 371.637 137.891 379.43 127.637C387.359 117.246 398.023 109.043 411.422 103.027C424.957 97.0117 439.791 94.0039 455.924 94.0039C481.49 94.0039 501.52 100.43 516.012 113.281C530.504 125.996 538.023 143.564 538.57 165.986V268.115C538.57 288.486 541.168 304.688 546.363 316.719V320H506.578ZM443.619 291.084C455.514 291.084 466.793 288.008 477.457 281.855C488.121 275.703 495.846 267.705 500.631 257.861V212.334H470.895C424.41 212.334 401.168 225.938 401.168 253.145C401.168 265.039 405.133 274.336 413.062 281.035C420.992 287.734 431.178 291.084 443.619 291.084ZM705.299 132.148C699.557 131.191 693.336 130.713 686.637 130.713C661.754 130.713 644.869 141.309 635.982 162.5V320H598.043V98.1055H634.957L635.572 123.74C648.014 103.916 665.65 94.0039 688.482 94.0039C695.865 94.0039 701.471 94.9609 705.299 96.875V132.148ZM802.301 217.256L778.512 242.07V320H740.572V5H778.512V195.518L798.814 171.113L867.926 98.1055H914.068L827.73 190.801L924.117 320H879.615L802.301 217.256ZM994.459 320H956.52V98.1055H994.459V320ZM953.443 39.248C953.443 33.0957 955.289 27.9004 958.98 23.6621C962.809 19.4238 968.414 17.3047 975.797 17.3047C983.18 17.3047 988.785 19.4238 992.613 23.6621C996.441 27.9004 998.355 33.0957 998.355 39.248C998.355 45.4004 996.441 50.5273 992.613 54.6289C988.785 58.7305 983.18 60.7812 975.797 60.7812C968.414 60.7812 962.809 58.7305 958.98 54.6289C955.289 50.5273 953.443 45.4004 953.443 39.248ZM1285.96 264.424L1337.64 98.1055H1378.24L1289.03 354.248C1275.22 391.162 1253.28 409.619 1223.2 409.619L1216.03 409.004L1201.88 406.338V375.576L1212.13 376.396C1224.98 376.396 1234.96 373.799 1242.07 368.604C1249.32 363.408 1255.26 353.906 1259.91 340.098L1268.32 317.539L1189.16 98.1055H1230.59L1285.96 264.424Z" fill="#646464"/>
<path d="M1053.11 320L1088.18 118.203H1052.5L1056.19 98.1055H1091.67L1095.97 67.959C1099.39 46.2207 1107.66 29.4043 1120.79 17.5098C1134.05 5.61523 1150.52 -0.195312 1170.21 0.078125C1178.14 0.351562 1187.1 1.71875 1197.08 4.17969L1192.77 24.4824C1185.11 22.4316 1177.8 21.4062 1170.83 21.4062C1157.15 21.4062 1145.81 25.8496 1136.78 34.7363C1127.9 43.623 1122.29 55.9961 1119.97 71.8555L1116.07 98.1055H1167.54L1163.85 118.203H1112.79L1077.72 320H1053.11Z" fill="#808080"/>
</svg>
